<svg width="500" height="400" viewBox="0 0 500 400" fill="none" xmlns="http://www.w3.org/2000/svg">
<path d="M106.16 173.6H112.784L127.616 215.432H127.904L142.232 173.6H145.328L159.368 215.648H159.656L174.56 173.6H177.872L160.016 224H155.768L142.448 184.616H142.088L128.336 224H124.016L106.16 173.6ZM203.048 173.6H235.592V177.56H209.6V195.632H231.92V198.944H209.6V220.04H235.592V224H203.048V173.6ZM288.768 209.168H263.928L257.592 224H254.28L275.592 173.6H279.192L302.664 224H295.68L288.768 209.168ZM287.256 205.928L275.952 181.664H275.664L265.296 205.928H287.256ZM332.791 173.6L355.903 216.872H356.191L379.519 173.6H384.487V224H377.935V183.176H377.647L354.895 224.864H353.599L331.351 182.888H331.063V224H327.895V173.6H332.791Z" fill="white"/>
<path d="M175.214 240.203V253H173.544V240.203H175.214ZM179.327 240.203V241.592H169.439V240.203H179.327ZM181.938 244.984V253H180.312V243.49H181.894L181.938 244.984ZM184.908 243.438L184.899 244.949C184.765 244.92 184.636 244.902 184.513 244.896C184.396 244.885 184.261 244.879 184.108 244.879C183.733 244.879 183.402 244.938 183.115 245.055C182.828 245.172 182.585 245.336 182.386 245.547C182.187 245.758 182.028 246.01 181.911 246.303C181.8 246.59 181.727 246.906 181.691 247.252L181.234 247.516C181.234 246.941 181.29 246.402 181.401 245.898C181.519 245.395 181.697 244.949 181.938 244.562C182.178 244.17 182.482 243.865 182.852 243.648C183.227 243.426 183.672 243.314 184.188 243.314C184.305 243.314 184.439 243.329 184.592 243.358C184.744 243.382 184.85 243.408 184.908 243.438ZM191.667 251.374V246.479C191.667 246.104 191.591 245.778 191.438 245.503C191.292 245.222 191.069 245.005 190.771 244.853C190.472 244.7 190.103 244.624 189.663 244.624C189.253 244.624 188.893 244.694 188.582 244.835C188.277 244.976 188.037 245.16 187.861 245.389C187.691 245.617 187.606 245.863 187.606 246.127H185.98C185.98 245.787 186.068 245.45 186.244 245.116C186.42 244.782 186.672 244.48 187 244.211C187.334 243.936 187.732 243.719 188.195 243.561C188.664 243.396 189.186 243.314 189.76 243.314C190.451 243.314 191.061 243.432 191.588 243.666C192.121 243.9 192.537 244.255 192.836 244.729C193.141 245.198 193.293 245.787 193.293 246.496V250.926C193.293 251.242 193.319 251.579 193.372 251.937C193.431 252.294 193.516 252.602 193.627 252.859V253H191.931C191.849 252.812 191.784 252.563 191.737 252.253C191.69 251.937 191.667 251.644 191.667 251.374ZM191.948 247.234L191.966 248.377H190.322C189.859 248.377 189.446 248.415 189.083 248.491C188.72 248.562 188.415 248.67 188.169 248.816C187.923 248.963 187.735 249.147 187.606 249.37C187.478 249.587 187.413 249.842 187.413 250.135C187.413 250.434 187.48 250.706 187.615 250.952C187.75 251.198 187.952 251.395 188.222 251.541C188.497 251.682 188.834 251.752 189.232 251.752C189.73 251.752 190.17 251.646 190.551 251.436C190.932 251.225 191.233 250.967 191.456 250.662C191.685 250.357 191.808 250.062 191.825 249.774L192.52 250.557C192.479 250.803 192.367 251.075 192.186 251.374C192.004 251.673 191.761 251.96 191.456 252.235C191.157 252.505 190.8 252.73 190.384 252.912C189.974 253.088 189.511 253.176 188.995 253.176C188.351 253.176 187.785 253.05 187.299 252.798C186.818 252.546 186.443 252.209 186.174 251.787C185.91 251.359 185.778 250.882 185.778 250.354C185.778 249.845 185.878 249.396 186.077 249.01C186.276 248.617 186.563 248.292 186.938 248.034C187.313 247.771 187.765 247.571 188.292 247.437C188.819 247.302 189.408 247.234 190.059 247.234H191.948ZM197.477 245.521V253H195.851V243.49H197.389L197.477 245.521ZM197.09 247.885L196.413 247.858C196.419 247.208 196.516 246.607 196.703 246.057C196.891 245.5 197.154 245.017 197.494 244.606C197.834 244.196 198.238 243.88 198.707 243.657C199.182 243.429 199.706 243.314 200.28 243.314C200.749 243.314 201.171 243.379 201.546 243.508C201.921 243.631 202.24 243.83 202.504 244.105C202.773 244.381 202.979 244.738 203.119 245.178C203.26 245.611 203.33 246.142 203.33 246.769V253H201.695V246.751C201.695 246.253 201.622 245.854 201.476 245.556C201.329 245.251 201.115 245.031 200.834 244.896C200.553 244.756 200.207 244.686 199.797 244.686C199.393 244.686 199.023 244.771 198.689 244.94C198.361 245.11 198.077 245.345 197.837 245.644C197.603 245.942 197.418 246.285 197.283 246.672C197.154 247.053 197.09 247.457 197.09 247.885ZM211.337 250.478C211.337 250.243 211.284 250.026 211.179 249.827C211.079 249.622 210.871 249.438 210.555 249.273C210.244 249.104 209.775 248.957 209.148 248.834C208.621 248.723 208.144 248.591 207.716 248.438C207.294 248.286 206.934 248.102 206.635 247.885C206.342 247.668 206.116 247.413 205.958 247.12C205.8 246.827 205.721 246.484 205.721 246.092C205.721 245.717 205.803 245.362 205.967 245.028C206.137 244.694 206.374 244.398 206.679 244.141C206.989 243.883 207.361 243.681 207.795 243.534C208.229 243.388 208.712 243.314 209.245 243.314C210.007 243.314 210.657 243.449 211.196 243.719C211.735 243.988 212.148 244.349 212.436 244.8C212.723 245.245 212.866 245.74 212.866 246.285H211.24C211.24 246.021 211.161 245.767 211.003 245.521C210.851 245.269 210.625 245.061 210.326 244.896C210.033 244.732 209.673 244.65 209.245 244.65C208.794 244.65 208.428 244.721 208.146 244.861C207.871 244.996 207.669 245.169 207.54 245.38C207.417 245.591 207.355 245.813 207.355 246.048C207.355 246.224 207.385 246.382 207.443 246.522C207.508 246.657 207.619 246.783 207.777 246.9C207.936 247.012 208.158 247.117 208.445 247.217C208.732 247.316 209.099 247.416 209.544 247.516C210.323 247.691 210.965 247.902 211.469 248.148C211.973 248.395 212.348 248.696 212.594 249.054C212.84 249.411 212.963 249.845 212.963 250.354C212.963 250.771 212.875 251.151 212.699 251.497C212.529 251.843 212.28 252.142 211.952 252.394C211.63 252.64 211.243 252.833 210.792 252.974C210.347 253.108 209.846 253.176 209.289 253.176C208.451 253.176 207.742 253.026 207.162 252.728C206.582 252.429 206.143 252.042 205.844 251.567C205.545 251.093 205.396 250.592 205.396 250.064H207.03C207.054 250.51 207.183 250.864 207.417 251.128C207.651 251.386 207.938 251.57 208.278 251.682C208.618 251.787 208.955 251.84 209.289 251.84C209.734 251.84 210.106 251.781 210.405 251.664C210.71 251.547 210.941 251.386 211.1 251.181C211.258 250.976 211.337 250.741 211.337 250.478ZM216.865 239.5V253H215.23V239.5H216.865ZM225.083 251.374V246.479C225.083 246.104 225.007 245.778 224.854 245.503C224.708 245.222 224.485 245.005 224.187 244.853C223.888 244.7 223.519 244.624 223.079 244.624C222.669 244.624 222.309 244.694 221.998 244.835C221.693 244.976 221.453 245.16 221.277 245.389C221.107 245.617 221.022 245.863 221.022 246.127H219.396C219.396 245.787 219.484 245.45 219.66 245.116C219.836 244.782 220.088 244.48 220.416 244.211C220.75 243.936 221.148 243.719 221.611 243.561C222.08 243.396 222.602 243.314 223.176 243.314C223.867 243.314 224.477 243.432 225.004 243.666C225.537 243.9 225.953 244.255 226.252 244.729C226.557 245.198 226.709 245.787 226.709 246.496V250.926C226.709 251.242 226.735 251.579 226.788 251.937C226.847 252.294 226.932 252.602 227.043 252.859V253H225.347C225.265 252.812 225.2 252.563 225.153 252.253C225.106 251.937 225.083 251.644 225.083 251.374ZM225.364 247.234L225.382 248.377H223.738C223.275 248.377 222.862 248.415 222.499 248.491C222.136 248.562 221.831 248.67 221.585 248.816C221.339 248.963 221.151 249.147 221.022 249.37C220.894 249.587 220.829 249.842 220.829 250.135C220.829 250.434 220.896 250.706 221.031 250.952C221.166 251.198 221.368 251.395 221.638 251.541C221.913 251.682 222.25 251.752 222.648 251.752C223.146 251.752 223.586 251.646 223.967 251.436C224.348 251.225 224.649 250.967 224.872 250.662C225.101 250.357 225.224 250.062 225.241 249.774L225.936 250.557C225.895 250.803 225.783 251.075 225.602 251.374C225.42 251.673 225.177 251.96 224.872 252.235C224.573 252.505 224.216 252.73 223.8 252.912C223.39 253.088 222.927 253.176 222.411 253.176C221.767 253.176 221.201 253.05 220.715 252.798C220.234 252.546 219.859 252.209 219.59 251.787C219.326 251.359 219.194 250.882 219.194 250.354C219.194 249.845 219.294 249.396 219.493 249.01C219.692 248.617 219.979 248.292 220.354 248.034C220.729 247.771 221.181 247.571 221.708 247.437C222.235 247.302 222.824 247.234 223.475 247.234H225.364ZM233.248 243.49V244.738H228.106V243.49H233.248ZM229.847 241.179H231.473V250.645C231.473 250.967 231.522 251.21 231.622 251.374C231.722 251.538 231.851 251.646 232.009 251.699C232.167 251.752 232.337 251.778 232.519 251.778C232.653 251.778 232.794 251.767 232.94 251.743C233.093 251.714 233.207 251.69 233.283 251.673L233.292 253C233.163 253.041 232.993 253.079 232.782 253.114C232.577 253.155 232.328 253.176 232.035 253.176C231.637 253.176 231.271 253.097 230.937 252.938C230.603 252.78 230.336 252.517 230.137 252.147C229.943 251.772 229.847 251.269 229.847 250.636V241.179ZM236.922 243.49V253H235.287V243.49H236.922ZM235.164 240.968C235.164 240.704 235.243 240.481 235.401 240.3C235.565 240.118 235.806 240.027 236.122 240.027C236.433 240.027 236.67 240.118 236.834 240.3C237.004 240.481 237.089 240.704 237.089 240.968C237.089 241.22 237.004 241.437 236.834 241.618C236.67 241.794 236.433 241.882 236.122 241.882C235.806 241.882 235.565 241.794 235.401 241.618C235.243 241.437 235.164 241.22 235.164 240.968ZM239.102 248.351V248.148C239.102 247.463 239.201 246.827 239.4 246.241C239.6 245.649 239.887 245.137 240.262 244.703C240.637 244.264 241.091 243.924 241.624 243.684C242.157 243.438 242.755 243.314 243.417 243.314C244.085 243.314 244.686 243.438 245.219 243.684C245.758 243.924 246.215 244.264 246.59 244.703C246.971 245.137 247.261 245.649 247.46 246.241C247.659 246.827 247.759 247.463 247.759 248.148V248.351C247.759 249.036 247.659 249.672 247.46 250.258C247.261 250.844 246.971 251.356 246.59 251.796C246.215 252.229 245.761 252.569 245.228 252.815C244.7 253.056 244.103 253.176 243.435 253.176C242.767 253.176 242.166 253.056 241.633 252.815C241.1 252.569 240.643 252.229 240.262 251.796C239.887 251.356 239.6 250.844 239.4 250.258C239.201 249.672 239.102 249.036 239.102 248.351ZM240.728 248.148V248.351C240.728 248.825 240.783 249.273 240.895 249.695C241.006 250.111 241.173 250.48 241.396 250.803C241.624 251.125 241.908 251.38 242.248 251.567C242.588 251.749 242.983 251.84 243.435 251.84C243.88 251.84 244.27 251.749 244.604 251.567C244.943 251.38 245.225 251.125 245.447 250.803C245.67 250.48 245.837 250.111 245.948 249.695C246.065 249.273 246.124 248.825 246.124 248.351V248.148C246.124 247.68 246.065 247.237 245.948 246.821C245.837 246.399 245.667 246.027 245.438 245.705C245.216 245.377 244.935 245.119 244.595 244.932C244.261 244.744 243.868 244.65 243.417 244.65C242.972 244.65 242.579 244.744 242.239 244.932C241.905 245.119 241.624 245.377 241.396 245.705C241.173 246.027 241.006 246.399 240.895 246.821C240.783 247.237 240.728 247.68 240.728 248.148ZM251.424 245.521V253H249.798V243.49H251.336L251.424 245.521ZM251.037 247.885L250.36 247.858C250.366 247.208 250.463 246.607 250.65 246.057C250.838 245.5 251.102 245.017 251.441 244.606C251.781 244.196 252.186 243.88 252.654 243.657C253.129 243.429 253.653 243.314 254.228 243.314C254.696 243.314 255.118 243.379 255.493 243.508C255.868 243.631 256.188 243.83 256.451 244.105C256.721 244.381 256.926 244.738 257.066 245.178C257.207 245.611 257.277 246.142 257.277 246.769V253H255.643V246.751C255.643 246.253 255.569 245.854 255.423 245.556C255.276 245.251 255.062 245.031 254.781 244.896C254.5 244.756 254.154 244.686 253.744 244.686C253.34 244.686 252.971 244.771 252.637 244.94C252.309 245.11 252.024 245.345 251.784 245.644C251.55 245.942 251.365 246.285 251.23 246.672C251.102 247.053 251.037 247.457 251.037 247.885ZM271.278 249.766C271.278 249.467 271.231 249.203 271.138 248.975C271.05 248.74 270.892 248.529 270.663 248.342C270.44 248.154 270.13 247.976 269.731 247.806C269.339 247.636 268.841 247.463 268.237 247.287C267.604 247.1 267.033 246.892 266.523 246.663C266.014 246.429 265.577 246.162 265.214 245.863C264.851 245.564 264.572 245.222 264.379 244.835C264.186 244.448 264.089 244.006 264.089 243.508C264.089 243.01 264.191 242.55 264.396 242.128C264.602 241.706 264.895 241.34 265.275 241.029C265.662 240.713 266.122 240.467 266.655 240.291C267.188 240.115 267.783 240.027 268.439 240.027C269.4 240.027 270.215 240.212 270.883 240.581C271.557 240.944 272.069 241.422 272.421 242.014C272.772 242.6 272.948 243.227 272.948 243.895H271.261C271.261 243.414 271.158 242.989 270.953 242.62C270.748 242.245 270.438 241.952 270.021 241.741C269.605 241.524 269.078 241.416 268.439 241.416C267.836 241.416 267.338 241.507 266.945 241.688C266.553 241.87 266.26 242.116 266.066 242.427C265.879 242.737 265.785 243.092 265.785 243.49C265.785 243.76 265.841 244.006 265.952 244.229C266.069 244.445 266.248 244.647 266.488 244.835C266.734 245.022 267.045 245.195 267.42 245.354C267.801 245.512 268.255 245.664 268.782 245.811C269.509 246.016 270.136 246.244 270.663 246.496C271.19 246.748 271.624 247.032 271.964 247.349C272.31 247.659 272.564 248.014 272.729 248.412C272.898 248.805 272.983 249.25 272.983 249.748C272.983 250.27 272.878 250.741 272.667 251.163C272.456 251.585 272.154 251.945 271.762 252.244C271.369 252.543 270.897 252.774 270.347 252.938C269.802 253.097 269.192 253.176 268.519 253.176C267.927 253.176 267.344 253.094 266.77 252.93C266.201 252.766 265.683 252.52 265.214 252.191C264.751 251.863 264.379 251.459 264.098 250.979C263.822 250.492 263.685 249.93 263.685 249.291H265.372C265.372 249.73 265.457 250.108 265.627 250.425C265.797 250.735 266.028 250.993 266.321 251.198C266.62 251.403 266.957 251.556 267.332 251.655C267.713 251.749 268.108 251.796 268.519 251.796C269.11 251.796 269.611 251.714 270.021 251.55C270.432 251.386 270.742 251.151 270.953 250.847C271.17 250.542 271.278 250.182 271.278 249.766ZM278.846 253.176C278.184 253.176 277.583 253.064 277.044 252.842C276.511 252.613 276.051 252.294 275.664 251.884C275.283 251.474 274.99 250.987 274.785 250.425C274.58 249.862 274.478 249.247 274.478 248.579V248.21C274.478 247.437 274.592 246.748 274.82 246.145C275.049 245.535 275.359 245.02 275.752 244.598C276.145 244.176 276.59 243.856 277.088 243.64C277.586 243.423 278.102 243.314 278.635 243.314C279.314 243.314 279.9 243.432 280.393 243.666C280.891 243.9 281.298 244.229 281.614 244.65C281.931 245.066 282.165 245.559 282.317 246.127C282.47 246.689 282.546 247.305 282.546 247.973V248.702H275.444V247.375H280.92V247.252C280.896 246.83 280.809 246.42 280.656 246.021C280.51 245.623 280.275 245.295 279.953 245.037C279.631 244.779 279.191 244.65 278.635 244.65C278.266 244.65 277.926 244.729 277.615 244.888C277.305 245.04 277.038 245.269 276.815 245.573C276.593 245.878 276.42 246.25 276.297 246.689C276.174 247.129 276.112 247.636 276.112 248.21V248.579C276.112 249.03 276.174 249.455 276.297 249.854C276.426 250.246 276.61 250.592 276.851 250.891C277.097 251.189 277.393 251.424 277.738 251.594C278.09 251.764 278.488 251.849 278.934 251.849C279.508 251.849 279.994 251.731 280.393 251.497C280.791 251.263 281.14 250.949 281.438 250.557L282.423 251.339C282.218 251.649 281.957 251.945 281.641 252.227C281.324 252.508 280.935 252.736 280.472 252.912C280.015 253.088 279.473 253.176 278.846 253.176ZM286.07 244.984V253H284.444V243.49H286.026L286.07 244.984ZM289.041 243.438L289.032 244.949C288.897 244.92 288.769 244.902 288.646 244.896C288.528 244.885 288.394 244.879 288.241 244.879C287.866 244.879 287.535 244.938 287.248 245.055C286.961 245.172 286.718 245.336 286.519 245.547C286.319 245.758 286.161 246.01 286.044 246.303C285.933 246.59 285.859 246.906 285.824 247.252L285.367 247.516C285.367 246.941 285.423 246.402 285.534 245.898C285.651 245.395 285.83 244.949 286.07 244.562C286.311 244.17 286.615 243.865 286.984 243.648C287.359 243.426 287.805 243.314 288.32 243.314C288.438 243.314 288.572 243.329 288.725 243.358C288.877 243.382 288.982 243.408 289.041 243.438ZM293.594 251.532L296.195 243.49H297.856L294.438 253H293.348L293.594 251.532ZM291.423 243.49L294.104 251.576L294.288 253H293.198L289.753 243.49H291.423ZM301.188 243.49V253H299.553V243.49H301.188ZM299.43 240.968C299.43 240.704 299.509 240.481 299.667 240.3C299.831 240.118 300.071 240.027 300.388 240.027C300.698 240.027 300.936 240.118 301.1 240.3C301.27 240.481 301.354 240.704 301.354 240.968C301.354 241.22 301.27 241.437 301.1 241.618C300.936 241.794 300.698 241.882 300.388 241.882C300.071 241.882 299.831 241.794 299.667 241.618C299.509 241.437 299.43 241.22 299.43 240.968ZM307.604 251.84C307.99 251.84 308.348 251.761 308.676 251.603C309.004 251.444 309.273 251.228 309.484 250.952C309.695 250.671 309.815 250.352 309.845 249.994H311.392C311.362 250.557 311.172 251.081 310.82 251.567C310.475 252.048 310.021 252.438 309.458 252.736C308.896 253.029 308.277 253.176 307.604 253.176C306.889 253.176 306.265 253.05 305.731 252.798C305.204 252.546 304.765 252.2 304.413 251.761C304.067 251.321 303.807 250.817 303.631 250.249C303.461 249.675 303.376 249.068 303.376 248.43V248.061C303.376 247.422 303.461 246.818 303.631 246.25C303.807 245.676 304.067 245.169 304.413 244.729C304.765 244.29 305.204 243.944 305.731 243.692C306.265 243.44 306.889 243.314 307.604 243.314C308.348 243.314 308.998 243.467 309.555 243.771C310.111 244.07 310.548 244.48 310.864 245.002C311.187 245.518 311.362 246.104 311.392 246.76H309.845C309.815 246.367 309.704 246.013 309.511 245.696C309.323 245.38 309.065 245.128 308.737 244.94C308.415 244.747 308.037 244.65 307.604 244.65C307.105 244.65 306.687 244.75 306.347 244.949C306.013 245.143 305.746 245.406 305.547 245.74C305.354 246.068 305.213 246.435 305.125 246.839C305.043 247.237 305.002 247.645 305.002 248.061V248.43C305.002 248.846 305.043 249.256 305.125 249.66C305.207 250.064 305.345 250.431 305.538 250.759C305.737 251.087 306.004 251.351 306.338 251.55C306.678 251.743 307.1 251.84 307.604 251.84ZM317.166 253.176C316.504 253.176 315.903 253.064 315.364 252.842C314.831 252.613 314.371 252.294 313.984 251.884C313.604 251.474 313.311 250.987 313.105 250.425C312.9 249.862 312.798 249.247 312.798 248.579V248.21C312.798 247.437 312.912 246.748 313.141 246.145C313.369 245.535 313.68 245.02 314.072 244.598C314.465 244.176 314.91 243.856 315.408 243.64C315.906 243.423 316.422 243.314 316.955 243.314C317.635 243.314 318.221 243.432 318.713 243.666C319.211 243.9 319.618 244.229 319.935 244.65C320.251 245.066 320.485 245.559 320.638 246.127C320.79 246.689 320.866 247.305 320.866 247.973V248.702H313.765V247.375H319.24V247.252C319.217 246.83 319.129 246.42 318.977 246.021C318.83 245.623 318.596 245.295 318.273 245.037C317.951 244.779 317.512 244.65 316.955 244.65C316.586 244.65 316.246 244.729 315.936 244.888C315.625 245.04 315.358 245.269 315.136 245.573C314.913 245.878 314.74 246.25 314.617 246.689C314.494 247.129 314.433 247.636 314.433 248.21V248.579C314.433 249.03 314.494 249.455 314.617 249.854C314.746 250.246 314.931 250.592 315.171 250.891C315.417 251.189 315.713 251.424 316.059 251.594C316.41 251.764 316.809 251.849 317.254 251.849C317.828 251.849 318.314 251.731 318.713 251.497C319.111 251.263 319.46 250.949 319.759 250.557L320.743 251.339C320.538 251.649 320.277 251.945 319.961 252.227C319.645 252.508 319.255 252.736 318.792 252.912C318.335 253.088 317.793 253.176 317.166 253.176ZM328.302 250.478C328.302 250.243 328.249 250.026 328.144 249.827C328.044 249.622 327.836 249.438 327.52 249.273C327.209 249.104 326.74 248.957 326.113 248.834C325.586 248.723 325.108 248.591 324.681 248.438C324.259 248.286 323.898 248.102 323.6 247.885C323.307 247.668 323.081 247.413 322.923 247.12C322.765 246.827 322.686 246.484 322.686 246.092C322.686 245.717 322.768 245.362 322.932 245.028C323.102 244.694 323.339 244.398 323.644 244.141C323.954 243.883 324.326 243.681 324.76 243.534C325.193 243.388 325.677 243.314 326.21 243.314C326.972 243.314 327.622 243.449 328.161 243.719C328.7 243.988 329.113 244.349 329.4 244.8C329.688 245.245 329.831 245.74 329.831 246.285H328.205C328.205 246.021 328.126 245.767 327.968 245.521C327.815 245.269 327.59 245.061 327.291 244.896C326.998 244.732 326.638 244.65 326.21 244.65C325.759 244.65 325.393 244.721 325.111 244.861C324.836 244.996 324.634 245.169 324.505 245.38C324.382 245.591 324.32 245.813 324.32 246.048C324.32 246.224 324.35 246.382 324.408 246.522C324.473 246.657 324.584 246.783 324.742 246.9C324.9 247.012 325.123 247.117 325.41 247.217C325.697 247.316 326.063 247.416 326.509 247.516C327.288 247.691 327.93 247.902 328.434 248.148C328.938 248.395 329.312 248.696 329.559 249.054C329.805 249.411 329.928 249.845 329.928 250.354C329.928 250.771 329.84 251.151 329.664 251.497C329.494 251.843 329.245 252.142 328.917 252.394C328.595 252.64 328.208 252.833 327.757 252.974C327.312 253.108 326.811 253.176 326.254 253.176C325.416 253.176 324.707 253.026 324.127 252.728C323.547 252.429 323.107 252.042 322.809 251.567C322.51 251.093 322.36 250.592 322.36 250.064H323.995C324.019 250.51 324.147 250.864 324.382 251.128C324.616 251.386 324.903 251.57 325.243 251.682C325.583 251.787 325.92 251.84 326.254 251.84C326.699 251.84 327.071 251.781 327.37 251.664C327.675 251.547 327.906 251.386 328.064 251.181C328.223 250.976 328.302 250.741 328.302 250.478Z" fill="white"/>
<line x1="160.988" y1="249" x2="74.9884" y2="247.988" stroke="white" stroke-width="2"/>
<line x1="422.988" y1="250.012" x2="336.988" y2="249" stroke="white" stroke-width="2"/>
<path d="M213 72H30V216" stroke="white" stroke-width="3"/>
<path d="M283 344H466V200" stroke="white" stroke-width="3"/>
</svg>
